<svg xmlns="http://www.w3.org/2000/svg" xmlns:xlink="http://www.w3.org/1999/xlink" width="1000" zoomAndPan="magnify" viewBox="0 0 750 749.999995" height="1000" preserveAspectRatio="xMidYMid meet" version="1.0"><path fill="#324c9a" d="M 115.925781 312.714844 L 146.890625 152.789062 C 150.660156 135.4375 171.714844 101.976562 215.089844 100.734375 L 534.90625 100.734375 C 577.039062 101.976562 598.121094 135.4375 601.855469 152.789062 L 634.066406 312.714844 C 653.910156 316.414062 674.988281 336.257812 674.988281 357.34375 L 674.988281 489.996094 C 674.988281 509.800781 657.613281 525.90625 648.929688 532.097656 L 648.929688 628.8125 C 636.558594 641.183594 622.902344 649.867188 605.550781 649.867188 C 588.199219 649.867188 569.640625 641.191406 558.472656 628.8125 L 558.472656 535.867188 L 475.410156 542.050781 L 274.609375 542.050781 L 191.554688 535.867188 L 191.554688 628.8125 C 180.390625 641.183594 161.796875 649.867188 144.4375 649.867188 C 127.085938 649.867188 113.472656 641.191406 99.816406 628.8125 L 99.816406 532.097656 C 92.359375 525.910156 75 509.800781 75 489.996094 L 75 357.34375 C 75 336.257812 96.121094 316.421875 115.925781 312.714844 M 598.128906 341.230469 C 620.730469 341.230469 639.054688 360.066406 639.054688 383.363281 C 639.054688 406.601562 620.722656 425.496094 598.128906 425.496094 C 575.5625 425.496094 557.207031 406.601562 557.207031 383.363281 C 557.207031 360.066406 575.566406 341.230469 598.128906 341.230469 M 149.382812 341.230469 C 171.976562 341.230469 190.300781 360.066406 190.300781 383.363281 C 190.300781 406.601562 171.972656 425.496094 149.382812 425.496094 C 126.78125 425.496094 108.492188 406.601562 108.492188 383.363281 C 108.492188 360.066406 126.785156 341.230469 149.382812 341.230469 M 156.851562 250.710938 L 165.527344 202.386719 C 176.6875 152.785156 229.957031 145.355469 284.496094 145.355469 L 465.511719 145.355469 C 520.050781 145.355469 573.347656 152.785156 583.265625 202.386719 L 591.941406 250.710938 C 596.886719 279.222656 580.78125 289.175781 549.808594 287.898438 L 375.019531 280.5 L 200.226562 287.898438 C 169.222656 289.175781 153.121094 279.222656 156.851562 250.710938 M 221.28125 387.101562 L 221.28125 404.460938 L 527.476562 404.460938 L 527.476562 387.101562 L 432.054688 380.914062 L 317.988281 380.914062 Z M 375.019531 429.234375 L 528.726562 429.234375 L 528.726562 452.808594 L 221.28125 452.808594 L 221.28125 429.234375 Z M 221.28125 494.910156 L 221.28125 476.351562 L 527.476562 476.351562 L 527.476562 494.910156 L 432.054688 499.882812 L 317.988281 499.882812 Z M 221.28125 494.910156 " fill-opacity="1" fill-rule="evenodd"/></svg>