<svg xmlns="http://www.w3.org/2000/svg" xmlns:xlink="http://www.w3.org/1999/xlink" width="1000" zoomAndPan="magnify" viewBox="0 0 750 749.999995" height="1000" preserveAspectRatio="xMidYMid meet" version="1.0"><path fill="#324c9a" d="M 580.636719 640.398438 L 580.636719 122.96875 L 595.578125 122.96875 L 595.578125 75 L 153.636719 75 L 153.636719 122.96875 L 168.578125 122.96875 L 168.578125 641.1875 L 111.171875 641.1875 L 111.171875 675 L 322.707031 675 L 322.707031 502 L 427.292969 502 L 427.292969 675 L 638.828125 675 L 638.828125 641.1875 L 580.636719 641.1875 Z M 282.601562 451.671875 L 226.769531 451.671875 L 226.769531 395.839844 L 282.601562 395.839844 Z M 282.601562 331.355469 L 226.769531 331.355469 L 226.769531 275.523438 L 282.601562 275.523438 Z M 282.601562 211.042969 L 226.769531 211.042969 L 226.769531 154.421875 L 282.601562 154.421875 Z M 402.917969 451.671875 L 347.082031 451.671875 L 347.082031 395.839844 L 402.917969 395.839844 C 402.917969 395.839844 402.917969 451.671875 402.917969 451.671875 Z M 402.917969 331.355469 L 347.082031 331.355469 L 347.082031 275.523438 L 402.917969 275.523438 C 402.917969 275.523438 402.917969 331.355469 402.917969 331.355469 Z M 402.917969 211.042969 L 347.082031 211.042969 L 347.082031 154.421875 L 402.917969 154.421875 C 402.917969 154.421875 402.917969 211.042969 402.917969 211.042969 Z M 523.230469 451.671875 L 466.613281 451.671875 L 466.613281 395.839844 L 523.230469 395.839844 Z M 523.230469 331.355469 L 466.613281 331.355469 L 466.613281 275.523438 L 523.230469 275.523438 Z M 523.230469 211.042969 L 466.613281 211.042969 L 466.613281 154.421875 L 523.230469 154.421875 Z M 523.230469 211.042969 " fill-opacity="1" fill-rule="nonzero"/></svg>