<svg xmlns="http://www.w3.org/2000/svg" xmlns:xlink="http://www.w3.org/1999/xlink" width="1000" zoomAndPan="magnify" viewBox="0 0 750 749.999995" height="1000" preserveAspectRatio="xMidYMid meet" version="1.0"><defs><clipPath id="2b7f227b37"><path d="M 79 92 L 675 92 L 675 659.523438 L 79 659.523438 Z M 79 92 " clip-rule="nonzero"/></clipPath></defs><g clip-path="url(#2b7f227b37)"><path fill="#25396f" d="M 628.355469 154.519531 L 584.382812 154.519531 C 578.277344 150.84375 571.703125 148.480469 564.65625 147.429688 L 535.789062 143.113281 L 535.789062 129.449219 C 535.789062 128.566406 535.746094 127.683594 535.65625 126.800781 C 535.570312 125.921875 535.441406 125.046875 535.269531 124.179688 C 535.097656 123.308594 534.882812 122.453125 534.625 121.605469 C 534.367188 120.757812 534.070312 119.925781 533.730469 119.109375 C 533.390625 118.292969 533.015625 117.492188 532.597656 116.710938 C 532.179688 115.929688 531.726562 115.171875 531.234375 114.4375 C 530.742188 113.703125 530.214844 112.992188 529.652344 112.308594 C 529.09375 111.625 528.5 110.96875 527.875 110.34375 C 527.246094 109.71875 526.59375 109.125 525.910156 108.5625 C 525.222656 108 524.515625 107.472656 523.777344 106.984375 C 523.042969 106.492188 522.285156 106.035156 521.503906 105.621094 C 520.722656 105.203125 519.925781 104.824219 519.105469 104.484375 C 518.289062 104.148438 517.457031 103.847656 516.609375 103.59375 C 515.765625 103.335938 514.90625 103.121094 514.039062 102.949219 C 513.171875 102.777344 512.296875 102.644531 511.414062 102.558594 C 510.535156 102.472656 509.652344 102.429688 508.765625 102.429688 L 474.554688 102.429688 C 473.667969 102.429688 472.785156 102.472656 471.90625 102.558594 C 471.027344 102.644531 470.152344 102.777344 469.285156 102.949219 C 468.414062 103.121094 467.558594 103.335938 466.710938 103.59375 C 465.863281 103.847656 465.03125 104.148438 464.214844 104.484375 C 463.398438 104.824219 462.597656 105.203125 461.816406 105.621094 C 461.035156 106.035156 460.277344 106.492188 459.542969 106.984375 C 458.808594 107.472656 458.097656 108 457.414062 108.5625 C 456.730469 109.125 456.074219 109.71875 455.449219 110.34375 C 454.824219 110.96875 454.230469 111.625 453.667969 112.308594 C 453.105469 112.992188 452.578125 113.703125 452.089844 114.4375 C 451.597656 115.171875 451.140625 115.929688 450.726562 116.710938 C 450.308594 117.492188 449.929688 118.292969 449.589844 119.109375 C 449.253906 119.925781 448.953125 120.757812 448.699219 121.605469 C 448.441406 122.453125 448.226562 123.308594 448.054688 124.179688 C 447.878906 125.046875 447.75 125.921875 447.664062 126.800781 C 447.578125 127.683594 447.535156 128.566406 447.535156 129.449219 L 201.472656 93.078125 C 199.671875 92.804688 197.863281 92.617188 196.042969 92.519531 C 194.222656 92.417969 192.40625 92.410156 190.585938 92.492188 C 188.765625 92.574219 186.953125 92.742188 185.148438 93.003906 C 183.347656 93.261719 181.5625 93.609375 179.792969 94.046875 C 178.023438 94.480469 176.28125 95.003906 174.5625 95.609375 C 172.84375 96.21875 171.160156 96.90625 169.511719 97.679688 C 167.863281 98.453125 166.253906 99.304688 164.6875 100.238281 C 163.125 101.167969 161.605469 102.175781 160.140625 103.257812 C 158.675781 104.335938 157.265625 105.488281 155.910156 106.707031 C 154.558594 107.925781 153.269531 109.210938 152.042969 110.558594 C 150.816406 111.902344 149.65625 113.308594 148.570312 114.769531 C 147.480469 116.230469 146.464844 117.738281 145.527344 119.300781 C 144.585938 120.859375 143.726562 122.464844 142.945312 124.109375 C 142.164062 125.753906 141.464844 127.433594 140.847656 129.148438 C 140.230469 130.863281 139.699219 132.605469 139.253906 134.371094 C 138.8125 136.136719 138.453125 137.921875 138.183594 139.722656 L 79.726562 529.105469 C 79.457031 530.910156 79.277344 532.726562 79.183594 534.546875 C 79.089844 536.371094 79.089844 538.191406 79.175781 540.015625 C 79.261719 541.835938 79.4375 543.652344 79.703125 545.457031 C 79.964844 547.261719 80.316406 549.050781 80.757812 550.820312 C 81.195312 552.59375 81.722656 554.339844 82.332031 556.058594 C 82.941406 557.777344 83.632812 559.464844 84.410156 561.113281 C 85.1875 562.765625 86.039062 564.375 86.972656 565.945312 C 87.90625 567.511719 88.914062 569.03125 89.996094 570.5 C 91.078125 571.96875 92.226562 573.382812 93.449219 574.742188 C 94.667969 576.097656 95.953125 577.390625 97.300781 578.621094 C 98.644531 579.851562 100.050781 581.015625 101.511719 582.109375 C 102.972656 583.203125 104.484375 584.222656 106.042969 585.167969 C 107.605469 586.113281 109.207031 586.980469 110.851562 587.769531 C 112.5 588.554688 114.179688 589.261719 115.894531 589.886719 C 117.609375 590.511719 119.347656 591.050781 121.117188 591.503906 C 122.882812 591.957031 124.667969 592.320312 126.472656 592.601562 L 196.4375 602.875 L 196.4375 613.148438 C 196.441406 614.683594 196.519531 616.210938 196.675781 617.738281 C 196.828125 619.265625 197.058594 620.78125 197.363281 622.285156 C 197.664062 623.789062 198.042969 625.273438 198.492188 626.738281 C 198.945312 628.207031 199.464844 629.648438 200.058594 631.0625 C 200.648438 632.476562 201.3125 633.859375 202.039062 635.210938 C 202.769531 636.558594 203.5625 637.871094 204.421875 639.140625 C 205.277344 640.414062 206.195312 641.640625 207.175781 642.820312 C 208.15625 644 209.191406 645.132812 210.28125 646.210938 C 211.371094 647.289062 212.511719 648.3125 213.703125 649.277344 C 214.898438 650.242188 216.132812 651.148438 217.414062 651.992188 C 218.695312 652.835938 220.015625 653.617188 221.371094 654.332031 C 222.730469 655.042969 224.121094 655.691406 225.539062 656.265625 C 226.960938 656.84375 228.410156 657.347656 229.878906 657.785156 C 231.351562 658.21875 232.839844 658.578125 234.347656 658.867188 C 235.855469 659.152344 237.371094 659.367188 238.898438 659.503906 C 240.429688 659.640625 241.960938 659.703125 243.492188 659.6875 L 628.765625 659.6875 C 630.285156 659.671875 631.800781 659.582031 633.308594 659.417969 C 634.816406 659.253906 636.316406 659.015625 637.800781 658.707031 C 639.289062 658.394531 640.753906 658.015625 642.203125 657.5625 C 643.652344 657.109375 645.078125 656.585938 646.476562 655.996094 C 647.871094 655.402344 649.238281 654.746094 650.574219 654.019531 C 651.90625 653.292969 653.203125 652.507812 654.460938 651.65625 C 655.71875 650.804688 656.929688 649.894531 658.097656 648.925781 C 659.265625 647.957031 660.386719 646.933594 661.453125 645.855469 C 662.523438 644.773438 663.535156 643.648438 664.496094 642.46875 C 665.453125 641.292969 666.355469 640.074219 667.195312 638.808594 C 668.035156 637.542969 668.808594 636.242188 669.523438 634.902344 C 670.238281 633.558594 670.882812 632.1875 671.460938 630.785156 C 672.042969 629.382812 672.550781 627.953125 672.992188 626.5 C 673.433594 625.046875 673.800781 623.578125 674.097656 622.089844 C 674.394531 620.597656 674.617188 619.097656 674.769531 617.589844 C 674.917969 616.078125 674.996094 614.5625 675 613.046875 L 675 201.367188 C 675.003906 199.835938 674.933594 198.308594 674.785156 196.785156 C 674.636719 195.261719 674.417969 193.746094 674.121094 192.246094 C 673.828125 190.742188 673.457031 189.257812 673.015625 187.792969 C 672.574219 186.328125 672.0625 184.886719 671.480469 183.46875 C 670.898438 182.054688 670.246094 180.671875 669.527344 179.320312 C 668.808594 177.96875 668.027344 176.652344 667.179688 175.378906 C 666.332031 174.105469 665.421875 172.875 664.453125 171.6875 C 663.484375 170.503906 662.460938 169.367188 661.378906 168.28125 C 660.300781 167.199219 659.167969 166.167969 657.988281 165.195312 C 656.808594 164.21875 655.582031 163.304688 654.308594 162.453125 C 653.039062 161.601562 651.730469 160.8125 650.378906 160.085938 C 649.03125 159.363281 647.652344 158.703125 646.238281 158.117188 C 644.824219 157.527344 643.386719 157.007812 641.921875 156.5625 C 640.457031 156.113281 638.976562 155.738281 637.472656 155.4375 C 635.972656 155.132812 634.460938 154.90625 632.9375 154.753906 C 631.414062 154.601562 629.886719 154.519531 628.355469 154.519531 Z M 535.890625 174.449219 L 535.890625 248.113281 C 535.890625 249 535.847656 249.882812 535.761719 250.761719 C 535.671875 251.644531 535.542969 252.515625 535.371094 253.386719 C 535.199219 254.253906 534.984375 255.109375 534.726562 255.957031 C 534.46875 256.804688 534.171875 257.636719 533.832031 258.453125 C 533.496094 259.273438 533.117188 260.070312 532.699219 260.851562 C 532.28125 261.632812 531.828125 262.390625 531.335938 263.125 C 530.84375 263.863281 530.316406 264.570312 529.757812 265.253906 C 529.195312 265.941406 528.601562 266.59375 527.976562 267.21875 C 527.351562 267.847656 526.695312 268.441406 526.011719 269 C 525.328125 269.5625 524.617188 270.089844 523.882812 270.582031 C 523.144531 271.070312 522.386719 271.527344 521.605469 271.945312 C 520.828125 272.359375 520.027344 272.738281 519.210938 273.078125 C 518.390625 273.417969 517.558594 273.714844 516.714844 273.972656 C 515.867188 274.226562 515.007812 274.441406 514.140625 274.613281 C 513.273438 274.789062 512.398438 274.917969 511.519531 275.003906 C 510.636719 275.089844 509.753906 275.132812 508.871094 275.132812 C 507.984375 275.132812 507.101562 275.089844 506.222656 275.003906 C 505.339844 274.917969 504.464844 274.789062 503.597656 274.613281 C 502.730469 274.441406 501.871094 274.226562 501.027344 273.972656 C 500.179688 273.714844 499.347656 273.417969 498.53125 273.078125 C 497.710938 272.738281 496.914062 272.359375 496.132812 271.945312 C 495.351562 271.527344 494.59375 271.070312 493.859375 270.582031 C 493.121094 270.089844 492.414062 269.5625 491.726562 269 C 491.042969 268.441406 490.390625 267.847656 489.761719 267.21875 C 489.136719 266.59375 488.542969 265.941406 487.984375 265.253906 C 487.421875 264.570312 486.894531 263.863281 486.402344 263.125 C 485.910156 262.390625 485.457031 261.632812 485.039062 260.851562 C 484.621094 260.070312 484.246094 259.273438 483.90625 258.453125 C 483.566406 257.636719 483.269531 256.804688 483.011719 255.957031 C 482.753906 255.109375 482.542969 254.253906 482.367188 253.386719 C 482.195312 252.515625 482.066406 251.644531 481.980469 250.761719 C 481.894531 249.882812 481.847656 249 481.847656 248.113281 L 481.847656 199.003906 C 481.746094 198.625 481.664062 198.238281 481.605469 197.851562 C 481.546875 197.460938 481.511719 197.070312 481.496094 196.679688 C 481.480469 196.285156 481.492188 195.890625 481.523438 195.5 C 481.550781 195.109375 481.605469 194.71875 481.683594 194.332031 C 481.757812 193.945312 481.855469 193.566406 481.972656 193.191406 C 482.09375 192.816406 482.234375 192.449219 482.394531 192.089844 C 482.558594 191.730469 482.738281 191.382812 482.941406 191.046875 C 483.140625 190.707031 483.363281 190.382812 483.601562 190.070312 C 483.839844 189.757812 484.097656 189.460938 484.371094 189.175781 C 484.644531 188.894531 484.929688 188.625 485.234375 188.375 C 485.539062 188.125 485.855469 187.894531 486.1875 187.679688 C 486.515625 187.46875 486.859375 187.273438 487.210938 187.097656 C 487.5625 186.925781 487.925781 186.773438 488.296875 186.640625 C 488.667969 186.507812 489.042969 186.394531 489.425781 186.304688 C 489.808594 186.214844 490.195312 186.148438 490.585938 186.101562 C 490.976562 186.058594 491.371094 186.035156 491.761719 186.035156 C 492.15625 186.035156 492.550781 186.058594 492.941406 186.101562 C 493.332031 186.148438 493.71875 186.214844 494.101562 186.304688 C 494.484375 186.394531 494.859375 186.507812 495.230469 186.640625 C 495.601562 186.773438 495.964844 186.925781 496.316406 187.097656 C 496.667969 187.273438 497.011719 187.46875 497.339844 187.679688 C 497.671875 187.894531 497.988281 188.125 498.292969 188.375 C 498.597656 188.625 498.882812 188.894531 499.15625 189.175781 C 499.429688 189.460938 499.6875 189.757812 499.925781 190.070312 C 500.164062 190.382812 500.386719 190.707031 500.585938 191.046875 C 500.789062 191.382812 500.96875 191.730469 501.132812 192.089844 C 501.292969 192.449219 501.433594 192.816406 501.554688 193.191406 C 501.671875 193.566406 501.769531 193.945312 501.84375 194.332031 C 501.921875 194.71875 501.972656 195.109375 502.003906 195.5 C 502.035156 195.890625 502.046875 196.285156 502.03125 196.679688 C 502.015625 197.070312 501.980469 197.460938 501.921875 197.851562 C 501.863281 198.238281 501.78125 198.625 501.679688 199.003906 L 501.679688 248.113281 C 501.679688 248.585938 501.722656 249.054688 501.816406 249.515625 C 501.910156 249.980469 502.042969 250.429688 502.226562 250.867188 C 502.40625 251.300781 502.628906 251.714844 502.890625 252.109375 C 503.152344 252.5 503.449219 252.863281 503.785156 253.199219 C 504.117188 253.53125 504.480469 253.832031 504.875 254.09375 C 505.265625 254.355469 505.679688 254.578125 506.117188 254.757812 C 506.554688 254.9375 507.003906 255.074219 507.464844 255.167969 C 507.929688 255.257812 508.398438 255.304688 508.871094 255.304688 C 509.34375 255.304688 509.808594 255.257812 510.273438 255.167969 C 510.734375 255.074219 511.1875 254.9375 511.621094 254.757812 C 512.058594 254.578125 512.472656 254.355469 512.867188 254.09375 C 513.257812 253.832031 513.621094 253.53125 513.953125 253.199219 C 514.289062 252.863281 514.585938 252.5 514.847656 252.109375 C 515.113281 251.714844 515.332031 251.300781 515.515625 250.867188 C 515.695312 250.429688 515.832031 249.980469 515.921875 249.515625 C 516.015625 249.054688 516.0625 248.585938 516.0625 248.113281 L 516.0625 174.449219 Z M 582.535156 435.820312 L 308.425781 437.667969 C 307.882812 437.523438 307.359375 437.332031 306.851562 437.097656 C 306.339844 436.867188 305.851562 436.59375 305.386719 436.28125 C 304.921875 435.96875 304.488281 435.621094 304.078125 435.238281 C 303.671875 434.851562 303.296875 434.4375 302.957031 433.992188 C 302.617188 433.550781 302.316406 433.078125 302.050781 432.585938 C 301.789062 432.089844 301.566406 431.578125 301.386719 431.046875 C 301.207031 430.515625 301.074219 429.976562 300.980469 429.421875 C 300.890625 428.871094 300.84375 428.3125 300.84375 427.753906 C 300.84375 427.195312 300.890625 426.636719 300.980469 426.085938 C 301.074219 425.53125 301.207031 424.992188 301.386719 424.460938 C 301.566406 423.929688 301.789062 423.417969 302.050781 422.921875 C 302.316406 422.429688 302.617188 421.960938 302.957031 421.515625 C 303.296875 421.070312 303.671875 420.65625 304.078125 420.269531 C 304.488281 419.886719 304.921875 419.539062 305.386719 419.226562 C 305.851562 418.914062 306.339844 418.640625 306.851562 418.410156 C 307.359375 418.175781 307.882812 417.988281 308.425781 417.839844 L 582.125 415.992188 C 582.664062 416.136719 583.1875 416.328125 583.699219 416.558594 C 584.207031 416.792969 584.695312 417.066406 585.160156 417.378906 C 585.625 417.691406 586.0625 418.039062 586.46875 418.421875 C 586.875 418.804688 587.25 419.21875 587.589844 419.664062 C 587.929688 420.109375 588.234375 420.578125 588.496094 421.074219 C 588.757812 421.566406 588.980469 422.082031 589.160156 422.609375 C 589.339844 423.140625 589.476562 423.683594 589.566406 424.234375 C 589.65625 424.789062 589.703125 425.34375 589.703125 425.90625 C 589.703125 426.464844 589.65625 427.019531 589.566406 427.574219 C 589.476562 428.125 589.339844 428.667969 589.160156 429.199219 C 588.980469 429.730469 588.757812 430.242188 588.496094 430.734375 C 588.234375 431.230469 587.929688 431.699219 587.589844 432.144531 C 587.25 432.589844 586.875 433.003906 586.46875 433.386719 C 586.0625 433.773438 585.625 434.121094 585.160156 434.433594 C 584.695312 434.746094 584.207031 435.015625 583.699219 435.25 C 583.1875 435.484375 582.664062 435.671875 582.125 435.820312 Z M 592.808594 527.359375 C 592.808594 528.035156 592.742188 528.703125 592.609375 529.363281 C 592.480469 530.027344 592.285156 530.667969 592.027344 531.292969 C 591.769531 531.914062 591.453125 532.507812 591.078125 533.066406 C 590.703125 533.628906 590.277344 534.148438 589.800781 534.625 C 589.320312 535.101562 588.804688 535.527344 588.242188 535.902344 C 587.679688 536.277344 587.089844 536.59375 586.464844 536.851562 C 585.84375 537.109375 585.199219 537.304688 584.539062 537.4375 C 583.875 537.570312 583.207031 537.632812 582.535156 537.632812 L 308.9375 539.484375 C 308.265625 539.484375 307.59375 539.417969 306.933594 539.285156 C 306.273438 539.15625 305.628906 538.960938 305.007812 538.703125 C 304.382812 538.441406 303.792969 538.125 303.230469 537.753906 C 302.667969 537.378906 302.152344 536.953125 301.671875 536.472656 C 301.195312 535.996094 300.769531 535.476562 300.394531 534.917969 C 300.019531 534.355469 299.703125 533.765625 299.445312 533.140625 C 299.1875 532.519531 298.992188 531.875 298.863281 531.214844 C 298.730469 530.550781 298.664062 529.882812 298.664062 529.210938 C 298.664062 528.535156 298.730469 527.867188 298.863281 527.207031 C 298.992188 526.542969 299.1875 525.902344 299.445312 525.277344 C 299.703125 524.65625 300.019531 524.0625 300.394531 523.5 C 300.769531 522.941406 301.195312 522.421875 301.671875 521.945312 C 302.152344 521.46875 302.667969 521.042969 303.230469 520.667969 C 303.792969 520.292969 304.382812 519.976562 305.007812 519.71875 C 305.628906 519.460938 306.273438 519.265625 306.933594 519.132812 C 307.59375 519 308.265625 518.9375 308.9375 518.9375 L 582.636719 517.085938 C 583.265625 517.148438 583.886719 517.269531 584.496094 517.449219 C 585.101562 517.625 585.6875 517.859375 586.253906 518.144531 C 586.820312 518.429688 587.351562 518.765625 587.855469 519.152344 C 588.359375 519.535156 588.824219 519.964844 589.246094 520.4375 C 589.671875 520.90625 590.046875 521.414062 590.378906 521.953125 C 590.707031 522.492188 590.984375 523.058594 591.210938 523.652344 C 591.4375 524.242188 591.605469 524.851562 591.71875 525.476562 C 591.832031 526.097656 591.886719 526.726562 591.882812 527.359375 Z M 582.535156 334.3125 L 308.9375 336.160156 C 308.398438 336.015625 307.871094 335.824219 307.363281 335.59375 C 306.855469 335.359375 306.367188 335.085938 305.902344 334.773438 C 305.4375 334.460938 305 334.113281 304.59375 333.730469 C 304.183594 333.347656 303.8125 332.933594 303.46875 332.488281 C 303.128906 332.042969 302.828125 331.574219 302.566406 331.078125 C 302.300781 330.585938 302.082031 330.070312 301.902344 329.542969 C 301.722656 329.011719 301.585938 328.46875 301.496094 327.917969 C 301.402344 327.363281 301.359375 326.808594 301.359375 326.246094 C 301.359375 325.6875 301.402344 325.132812 301.496094 324.578125 C 301.585938 324.027344 301.722656 323.484375 301.902344 322.953125 C 302.082031 322.421875 302.300781 321.910156 302.566406 321.417969 C 302.828125 320.921875 303.128906 320.453125 303.472656 320.007812 C 303.8125 319.5625 304.183594 319.148438 304.59375 318.765625 C 305 318.378906 305.4375 318.03125 305.902344 317.71875 C 306.367188 317.40625 306.855469 317.136719 307.363281 316.902344 C 307.871094 316.667969 308.398438 316.480469 308.9375 316.332031 L 581.917969 314.382812 C 582.457031 314.527344 582.984375 314.71875 583.492188 314.949219 C 584.003906 315.183594 584.488281 315.457031 584.953125 315.769531 C 585.417969 316.082031 585.855469 316.429688 586.261719 316.8125 C 586.671875 317.195312 587.046875 317.609375 587.386719 318.054688 C 587.726562 318.5 588.027344 318.96875 588.289062 319.464844 C 588.554688 319.957031 588.777344 320.472656 588.953125 321 C 589.132812 321.53125 589.269531 322.074219 589.359375 322.625 C 589.453125 323.179688 589.496094 323.734375 589.496094 324.296875 C 589.496094 324.855469 589.453125 325.410156 589.359375 325.964844 C 589.269531 326.515625 589.132812 327.058594 588.953125 327.589844 C 588.777344 328.121094 588.554688 328.632812 588.289062 329.125 C 588.027344 329.621094 587.726562 330.089844 587.386719 330.535156 C 587.046875 330.980469 586.671875 331.394531 586.261719 331.777344 C 585.855469 332.160156 585.417969 332.511719 584.953125 332.824219 C 584.488281 333.136719 584.003906 333.40625 583.492188 333.640625 C 582.984375 333.871094 582.457031 334.0625 581.917969 334.210938 Z M 467.464844 129.449219 C 467.464844 128.980469 467.511719 128.519531 467.601562 128.058594 C 467.691406 127.601562 467.824219 127.152344 468.003906 126.722656 C 468.179688 126.289062 468.398438 125.875 468.65625 125.484375 C 468.914062 125.09375 469.207031 124.734375 469.535156 124.398438 C 469.863281 124.066406 470.222656 123.769531 470.609375 123.503906 C 470.996094 123.242188 471.402344 123.019531 471.835938 122.835938 C 472.265625 122.652344 472.707031 122.511719 473.167969 122.414062 C 473.625 122.316406 474.085938 122.265625 474.554688 122.257812 L 508.765625 122.257812 C 509.238281 122.265625 509.703125 122.316406 510.164062 122.414062 C 510.625 122.507812 511.070312 122.648438 511.503906 122.832031 C 511.9375 123.015625 512.347656 123.238281 512.738281 123.5 C 513.128906 123.761719 513.492188 124.0625 513.824219 124.394531 C 514.15625 124.726562 514.453125 125.085938 514.714844 125.476562 C 514.980469 125.867188 515.203125 126.28125 515.382812 126.714844 C 515.566406 127.144531 515.707031 127.59375 515.804688 128.054688 C 515.902344 128.515625 515.953125 128.980469 515.957031 129.449219 L 515.957031 139.722656 L 467.464844 132.839844 Z M 129.453125 572.875 C 128.285156 572.695312 127.128906 572.460938 125.988281 572.167969 C 124.84375 571.878906 123.714844 571.53125 122.605469 571.128906 C 121.496094 570.722656 120.410156 570.269531 119.347656 569.757812 C 118.28125 569.25 117.246094 568.6875 116.234375 568.074219 C 115.226562 567.464844 114.25 566.804688 113.304688 566.097656 C 112.359375 565.386719 111.453125 564.636719 110.582031 563.835938 C 109.710938 563.039062 108.882812 562.203125 108.097656 561.324219 C 107.308594 560.445312 106.566406 559.527344 105.867188 558.574219 C 105.171875 557.625 104.523438 556.640625 103.921875 555.625 C 103.320312 554.609375 102.773438 553.5625 102.273438 552.492188 C 101.777344 551.425781 101.332031 550.332031 100.941406 549.21875 C 100.550781 548.105469 100.214844 546.972656 99.9375 545.828125 C 99.660156 544.679688 99.4375 543.523438 99.273438 542.355469 C 99.105469 541.183594 99 540.011719 98.949219 538.832031 C 98.902344 537.652344 98.910156 536.472656 98.976562 535.296875 C 99.042969 534.117188 99.167969 532.945312 99.347656 531.777344 L 157.808594 142.394531 C 158.144531 140.105469 158.699219 137.867188 159.472656 135.6875 C 160.246094 133.503906 161.222656 131.417969 162.402344 129.425781 C 163.582031 127.4375 164.945312 125.578125 166.488281 123.851562 C 168.03125 122.128906 169.726562 120.570312 171.574219 119.175781 C 173.464844 117.773438 175.472656 116.570312 177.601562 115.574219 C 179.730469 114.574219 181.9375 113.796875 184.222656 113.238281 C 186.507812 112.683594 188.828125 112.359375 191.175781 112.269531 C 193.527344 112.179688 195.863281 112.324219 198.183594 112.703125 L 455.035156 151.230469 L 476.917969 154.519531 L 243.492188 154.519531 C 241.953125 154.503906 240.414062 154.566406 238.882812 154.707031 C 237.347656 154.84375 235.824219 155.058594 234.308594 155.347656 C 232.796875 155.636719 231.300781 156 229.824219 156.441406 C 228.347656 156.878906 226.894531 157.386719 225.46875 157.96875 C 224.042969 158.550781 222.648438 159.203125 221.285156 159.921875 C 219.925781 160.640625 218.601562 161.425781 217.316406 162.277344 C 216.03125 163.128906 214.792969 164.039062 213.601562 165.015625 C 212.40625 165.988281 211.261719 167.019531 210.171875 168.105469 C 209.078125 169.191406 208.042969 170.332031 207.066406 171.519531 C 206.085938 172.710938 205.167969 173.945312 204.3125 175.226562 C 203.457031 176.507812 202.664062 177.824219 201.9375 179.183594 C 201.214844 180.542969 200.554688 181.933594 199.96875 183.359375 C 199.378906 184.78125 198.863281 186.230469 198.421875 187.707031 C 197.976562 189.183594 197.605469 190.675781 197.308594 192.1875 C 197.011719 193.699219 196.792969 195.222656 196.644531 196.757812 C 196.5 198.289062 196.429688 199.828125 196.4375 201.367188 L 196.4375 582.941406 Z M 129.453125 572.875 " fill-opacity="1" fill-rule="nonzero"/></g></svg>