<svg xmlns="http://www.w3.org/2000/svg" xmlns:xlink="http://www.w3.org/1999/xlink" width="1000" zoomAndPan="magnify" viewBox="0 0 750 749.999995" height="1000" preserveAspectRatio="xMidYMid meet" version="1.0"><defs><clipPath id="0b338002cc"><path d="M 218 165 L 616.125 165 L 616.125 674 L 218 674 Z M 218 165 " clip-rule="nonzero"/></clipPath><clipPath id="41146103e5"><path d="M 133.875 150 L 133.875 600 C 133.875 641.421875 167.453125 675 208.875 675 L 541.125 675 C 582.546875 675 616.125 641.421875 616.125 600 L 616.125 150 C 616.125 108.578125 582.546875 75 541.125 75 L 208.875 75 C 167.453125 75 133.875 108.578125 133.875 150 Z M 133.875 150 " clip-rule="nonzero"/></clipPath><clipPath id="44d65bb5f5"><path d="M 134 76 L 532 76 L 532 585 L 134 585 Z M 134 76 " clip-rule="nonzero"/></clipPath><clipPath id="e66673ff84"><path d="M 133.875 150 L 133.875 600 C 133.875 641.421875 167.453125 675 208.875 675 L 541.125 675 C 582.546875 675 616.125 641.421875 616.125 600 L 616.125 150 C 616.125 108.578125 582.546875 75 541.125 75 L 208.875 75 C 167.453125 75 133.875 108.578125 133.875 150 Z M 133.875 150 " clip-rule="nonzero"/></clipPath><clipPath id="20d945f319"><path d="M 149 91 L 252 91 L 252 194 L 149 194 Z M 149 91 " clip-rule="nonzero"/></clipPath><clipPath id="c6b3132e96"><path d="M 133.875 150 L 133.875 600 C 133.875 641.421875 167.453125 675 208.875 675 L 541.125 675 C 582.546875 675 616.125 641.421875 616.125 600 L 616.125 150 C 616.125 108.578125 582.546875 75 541.125 75 L 208.875 75 C 167.453125 75 133.875 108.578125 133.875 150 Z M 133.875 150 " clip-rule="nonzero"/></clipPath></defs><g clip-path="url(#0b338002cc)"><g clip-path="url(#41146103e5)"><path fill="#ff8d28" d="M 218.085938 673.738281 L 616.050781 673.738281 L 616.050781 165.039062 L 553.25 165.039062 L 553.25 595.628906 C 553.25 596.328125 553.183594 597.023438 553.046875 597.710938 C 552.910156 598.398438 552.707031 599.066406 552.4375 599.710938 C 552.171875 600.359375 551.84375 600.972656 551.453125 601.558594 C 551.0625 602.140625 550.621094 602.679688 550.125 603.171875 C 549.628906 603.667969 549.09375 604.109375 548.507812 604.5 C 547.925781 604.890625 547.3125 605.21875 546.664062 605.488281 C 546.015625 605.753906 545.351562 605.957031 544.664062 606.09375 C 543.976562 606.230469 543.28125 606.296875 542.582031 606.296875 L 218.085938 606.296875 Z M 218.085938 673.738281 " fill-opacity="1" fill-rule="nonzero"/></g></g><g clip-path="url(#44d65bb5f5)"><g clip-path="url(#e66673ff84)"><path fill="#ff8d28" d="M 531.914062 76.261719 L 273.003906 76.261719 L 273.003906 204.589844 C 273.003906 205.292969 272.933594 205.984375 272.796875 206.671875 C 272.660156 207.359375 272.457031 208.027344 272.191406 208.671875 C 271.921875 209.320312 271.59375 209.9375 271.203125 210.519531 C 270.816406 211.101562 270.371094 211.640625 269.878906 212.136719 C 269.382812 212.628906 268.84375 213.074219 268.261719 213.460938 C 267.675781 213.851562 267.0625 214.179688 266.414062 214.449219 C 265.769531 214.714844 265.101562 214.917969 264.414062 215.054688 C 263.726562 215.191406 263.035156 215.261719 262.332031 215.261719 L 134.003906 215.261719 L 134.003906 584.960938 L 531.964844 584.960938 Z M 332.964844 529.054688 L 202.796875 529.054688 C 202.097656 529.054688 201.402344 528.984375 200.71875 528.847656 C 200.03125 528.710938 199.363281 528.507812 198.714844 528.242188 C 198.066406 527.972656 197.453125 527.644531 196.871094 527.253906 C 196.289062 526.867188 195.75 526.421875 195.253906 525.929688 C 194.757812 525.433594 194.316406 524.894531 193.925781 524.3125 C 193.539062 523.730469 193.210938 523.113281 192.941406 522.46875 C 192.671875 521.820312 192.472656 521.152344 192.335938 520.464844 C 192.199219 519.777344 192.128906 519.085938 192.128906 518.382812 C 192.128906 517.683594 192.199219 516.988281 192.335938 516.300781 C 192.472656 515.617188 192.671875 514.949219 192.941406 514.300781 C 193.210938 513.652344 193.539062 513.039062 193.925781 512.457031 C 194.316406 511.875 194.757812 511.335938 195.253906 510.839844 C 195.75 510.34375 196.289062 509.902344 196.871094 509.511719 C 197.453125 509.125 198.066406 508.792969 198.714844 508.527344 C 199.363281 508.257812 200.03125 508.054688 200.71875 507.917969 C 201.402344 507.78125 202.097656 507.714844 202.796875 507.714844 L 332.964844 507.714844 C 333.664062 507.714844 334.359375 507.78125 335.042969 507.917969 C 335.730469 508.054688 336.398438 508.257812 337.046875 508.527344 C 337.691406 508.792969 338.308594 509.125 338.890625 509.511719 C 339.472656 509.902344 340.011719 510.34375 340.507812 510.839844 C 341.003906 511.335938 341.445312 511.875 341.835938 512.457031 C 342.222656 513.039062 342.550781 513.652344 342.820312 514.300781 C 343.089844 514.949219 343.289062 515.617188 343.425781 516.300781 C 343.5625 516.988281 343.632812 517.683594 343.632812 518.382812 C 343.632812 519.085938 343.5625 519.777344 343.425781 520.464844 C 343.289062 521.152344 343.089844 521.820312 342.820312 522.46875 C 342.550781 523.113281 342.222656 523.730469 341.835938 524.3125 C 341.445312 524.894531 341.003906 525.433594 340.507812 525.929688 C 340.011719 526.421875 339.472656 526.867188 338.890625 527.253906 C 338.308594 527.644531 337.691406 527.972656 337.046875 528.242188 C 336.398438 528.507812 335.730469 528.710938 335.042969 528.847656 C 334.359375 528.984375 333.664062 529.054688 332.964844 529.054688 Z M 463.128906 449.214844 L 202.753906 449.214844 C 202.054688 449.214844 201.359375 449.148438 200.675781 449.011719 C 199.988281 448.875 199.320312 448.671875 198.671875 448.402344 C 198.027344 448.136719 197.410156 447.804688 196.828125 447.417969 C 196.246094 447.027344 195.707031 446.585938 195.210938 446.089844 C 194.714844 445.59375 194.273438 445.054688 193.882812 444.472656 C 193.496094 443.890625 193.167969 443.277344 192.898438 442.628906 C 192.628906 441.980469 192.429688 441.316406 192.292969 440.628906 C 192.15625 439.941406 192.085938 439.246094 192.085938 438.546875 C 192.085938 437.84375 192.15625 437.152344 192.292969 436.464844 C 192.429688 435.777344 192.628906 435.109375 192.898438 434.464844 C 193.167969 433.816406 193.496094 433.199219 193.882812 432.617188 C 194.273438 432.035156 194.714844 431.496094 195.210938 431 C 195.707031 430.507812 196.246094 430.0625 196.828125 429.675781 C 197.410156 429.285156 198.027344 428.957031 198.671875 428.6875 C 199.320312 428.421875 199.988281 428.21875 200.675781 428.082031 C 201.359375 427.945312 202.054688 427.875 202.753906 427.875 L 463.171875 427.875 C 463.871094 427.875 464.566406 427.945312 465.253906 428.082031 C 465.9375 428.21875 466.605469 428.421875 467.253906 428.6875 C 467.902344 428.957031 468.515625 429.285156 469.097656 429.675781 C 469.679688 430.0625 470.21875 430.507812 470.714844 431 C 471.210938 431.496094 471.652344 432.035156 472.042969 432.617188 C 472.429688 433.199219 472.757812 433.816406 473.027344 434.464844 C 473.296875 435.109375 473.5 435.777344 473.636719 436.464844 C 473.769531 437.152344 473.839844 437.84375 473.839844 438.546875 C 473.839844 439.246094 473.773438 439.941406 473.636719 440.628906 C 473.5 441.316406 473.296875 441.980469 473.027344 442.628906 C 472.757812 443.277344 472.429688 443.890625 472.042969 444.472656 C 471.652344 445.054688 471.210938 445.59375 470.714844 446.089844 C 470.21875 446.585938 469.679688 447.027344 469.097656 447.417969 C 468.515625 447.804688 467.902344 448.136719 467.253906 448.402344 C 466.605469 448.671875 465.9375 448.875 465.253906 449.011719 C 464.566406 449.148438 463.871094 449.214844 463.171875 449.214844 Z M 463.128906 369.378906 L 202.753906 369.378906 C 202.054688 369.378906 201.359375 369.308594 200.675781 369.171875 C 199.988281 369.035156 199.320312 368.832031 198.671875 368.566406 C 198.027344 368.296875 197.410156 367.96875 196.828125 367.578125 C 196.246094 367.191406 195.707031 366.746094 195.210938 366.253906 C 194.714844 365.757812 194.273438 365.21875 193.882812 364.636719 C 193.496094 364.054688 193.167969 363.4375 192.898438 362.789062 C 192.628906 362.144531 192.429688 361.476562 192.292969 360.789062 C 192.15625 360.101562 192.085938 359.410156 192.085938 358.707031 C 192.085938 358.007812 192.15625 357.3125 192.292969 356.625 C 192.429688 355.941406 192.628906 355.273438 192.898438 354.625 C 193.167969 353.976562 193.496094 353.363281 193.882812 352.78125 C 194.273438 352.199219 194.714844 351.660156 195.210938 351.164062 C 195.707031 350.667969 196.246094 350.226562 196.828125 349.835938 C 197.410156 349.449219 198.027344 349.117188 198.671875 348.851562 C 199.320312 348.582031 199.988281 348.378906 200.675781 348.242188 C 201.359375 348.105469 202.054688 348.039062 202.753906 348.039062 L 463.171875 348.039062 C 463.871094 348.039062 464.566406 348.105469 465.253906 348.242188 C 465.9375 348.378906 466.605469 348.582031 467.253906 348.851562 C 467.902344 349.117188 468.515625 349.449219 469.097656 349.835938 C 469.679688 350.226562 470.21875 350.667969 470.714844 351.164062 C 471.210938 351.660156 471.652344 352.199219 472.042969 352.78125 C 472.429688 353.363281 472.757812 353.976562 473.027344 354.625 C 473.296875 355.273438 473.5 355.941406 473.636719 356.625 C 473.769531 357.3125 473.839844 358.007812 473.839844 358.707031 C 473.839844 359.410156 473.773438 360.101562 473.636719 360.789062 C 473.5 361.476562 473.296875 362.144531 473.027344 362.789062 C 472.757812 363.4375 472.429688 364.054688 472.042969 364.636719 C 471.652344 365.21875 471.210938 365.757812 470.714844 366.253906 C 470.21875 366.746094 469.679688 367.191406 469.097656 367.578125 C 468.515625 367.96875 467.902344 368.296875 467.253906 368.566406 C 466.605469 368.832031 465.9375 369.035156 465.253906 369.171875 C 464.566406 369.308594 463.871094 369.378906 463.171875 369.378906 Z M 463.128906 289.527344 L 202.753906 289.527344 C 202.054688 289.527344 201.359375 289.460938 200.675781 289.324219 C 199.988281 289.1875 199.320312 288.984375 198.671875 288.714844 C 198.027344 288.449219 197.410156 288.121094 196.828125 287.730469 C 196.246094 287.339844 195.707031 286.898438 195.210938 286.402344 C 194.714844 285.910156 194.273438 285.371094 193.882812 284.785156 C 193.496094 284.203125 193.167969 283.589844 192.898438 282.941406 C 192.628906 282.296875 192.429688 281.628906 192.292969 280.941406 C 192.15625 280.253906 192.085938 279.558594 192.085938 278.859375 C 192.085938 278.160156 192.15625 277.464844 192.292969 276.777344 C 192.429688 276.089844 192.628906 275.421875 192.898438 274.777344 C 193.167969 274.128906 193.496094 273.515625 193.882812 272.933594 C 194.273438 272.347656 194.714844 271.808594 195.210938 271.316406 C 195.707031 270.820312 196.246094 270.378906 196.828125 269.988281 C 197.410156 269.597656 198.027344 269.269531 198.671875 269.003906 C 199.320312 268.734375 199.988281 268.53125 200.675781 268.394531 C 201.359375 268.257812 202.054688 268.191406 202.753906 268.191406 L 463.171875 268.191406 C 463.871094 268.191406 464.566406 268.257812 465.253906 268.394531 C 465.9375 268.53125 466.605469 268.734375 467.253906 269.003906 C 467.902344 269.269531 468.515625 269.597656 469.097656 269.988281 C 469.679688 270.378906 470.21875 270.820312 470.714844 271.316406 C 471.210938 271.808594 471.652344 272.347656 472.042969 272.933594 C 472.429688 273.515625 472.757812 274.128906 473.027344 274.777344 C 473.296875 275.421875 473.5 276.089844 473.636719 276.777344 C 473.769531 277.464844 473.839844 278.160156 473.839844 278.859375 C 473.839844 279.558594 473.773438 280.253906 473.636719 280.941406 C 473.5 281.628906 473.296875 282.296875 473.027344 282.941406 C 472.757812 283.589844 472.429688 284.203125 472.042969 284.785156 C 471.652344 285.371094 471.210938 285.910156 470.714844 286.402344 C 470.21875 286.898438 469.679688 287.339844 469.097656 287.730469 C 468.515625 288.121094 467.902344 288.449219 467.253906 288.714844 C 466.605469 288.984375 465.9375 289.1875 465.253906 289.324219 C 464.566406 289.460938 463.871094 289.527344 463.171875 289.527344 Z M 463.128906 289.527344 " fill-opacity="1" fill-rule="nonzero"/></g></g><g clip-path="url(#20d945f319)"><g clip-path="url(#c6b3132e96)"><path fill="#ff8d28" d="M 251.664062 91.347656 L 200.375 142.632812 L 149.089844 193.921875 L 251.664062 193.921875 Z M 251.664062 91.347656 " fill-opacity="1" fill-rule="nonzero"/></g></g></svg>