<svg xmlns="http://www.w3.org/2000/svg" xmlns:xlink="http://www.w3.org/1999/xlink" width="1000" zoomAndPan="magnify" viewBox="0 0 750 749.999995" height="1000" preserveAspectRatio="xMidYMid meet" version="1.0"><defs><filter x="0%" y="0%" width="100%" height="100%" id="e55b62a53c"><feColorMatrix values="0 0 0 0 1 0 0 0 0 1 0 0 0 0 1 0 0 0 1 0" color-interpolation-filters="sRGB"/></filter><mask id="17ad8dd9c8"><g filter="url(#e55b62a53c)"><rect x="-75" width="900" fill="#000000" y="-74.999999" height="899.999994" fill-opacity="0.5"/></g></mask><clipPath id="452e7208e7"><path d="M 0.71875 1 L 373.921875 1 L 373.921875 384 L 0.71875 384 Z M 0.71875 1 " clip-rule="nonzero"/></clipPath><clipPath id="15cbd73442"><rect x="0" width="374" y="0" height="385"/></clipPath></defs><path fill="#ff5050" d="M 675 375 C 675.015625 389.691406 673.957031 404.308594 671.820312 418.84375 C 669.683594 433.382812 666.496094 447.683594 662.257812 461.75 C 628.195312 574.75 529.28125 659.613281 408.78125 673.117188 C 397.558594 674.378906 386.296875 675.003906 375 675 C 209.3125 675 75 540.6875 75 375 C 75 209.3125 209.3125 75 375 75 C 540.6875 75 675 209.3125 675 375 Z M 675 375 " fill-opacity="1" fill-rule="nonzero"/><g mask="url(#17ad8dd9c8)"><g transform="matrix(1, 0, 0, 1, 264, 261)"><g clip-path="url(#15cbd73442)"><g clip-path="url(#452e7208e7)"><path fill="#d84b4b" d="M 373.550781 177.300781 C 371.839844 184.414062 369.839844 191.460938 367.550781 198.433594 C 366.316406 202.183594 364.996094 205.914062 363.59375 209.617188 C 360.421875 217.960938 356.847656 226.125 352.871094 234.117188 C 348.894531 242.105469 344.53125 249.878906 339.785156 257.4375 C 335.039062 264.996094 329.933594 272.300781 324.464844 279.351562 C 318.996094 286.40625 313.195312 293.171875 307.058594 299.652344 C 300.921875 306.132812 294.480469 312.296875 287.738281 318.140625 C 280.992188 323.984375 273.972656 329.480469 266.6875 334.628906 C 259.398438 339.78125 251.875 344.558594 244.113281 348.96875 C 236.351562 353.375 228.394531 357.386719 220.234375 361.007812 C 216.820312 362.523438 213.382812 363.964844 209.917969 365.324219 C 195.25 371.113281 180.1875 375.570312 164.730469 378.691406 C 149.273438 381.816406 133.664062 383.5625 117.898438 383.925781 L 0.898438 261.25 L 1.105469 260.949219 L 79.242188 152.371094 L 94.585938 131.042969 L 187.835938 1.441406 L 188.054688 1.144531 Z M 373.550781 177.300781 " fill-opacity="1" fill-rule="nonzero"/></g></g></g></g><path fill="#ffffff" d="M 455.460938 387.148438 C 453.371094 386.804688 451.269531 386.707031 449.15625 386.855469 C 447.042969 387 444.976562 387.382812 442.953125 388.007812 C 440.929688 388.632812 439.003906 389.480469 437.175781 390.550781 C 435.351562 391.621094 433.667969 392.886719 432.136719 394.347656 C 431.140625 395.300781 430.121094 396.226562 429.082031 397.128906 C 428.039062 398.035156 426.980469 398.910156 425.898438 399.765625 C 424.8125 400.617188 423.710938 401.445312 422.589844 402.246094 C 421.46875 403.046875 420.328125 403.816406 419.171875 404.5625 C 418.011719 405.308594 416.835938 406.027344 415.644531 406.71875 C 414.449219 407.40625 413.242188 408.070312 412.019531 408.699219 C 410.792969 409.332031 409.554688 409.9375 408.300781 410.507812 C 407.050781 411.082031 405.78125 411.625 404.503906 412.136719 C 403.226562 412.652344 401.933594 413.132812 400.632812 413.582031 C 399.332031 414.035156 398.019531 414.453125 396.695312 414.84375 C 395.375 415.230469 394.042969 415.589844 392.707031 415.914062 C 391.367188 416.238281 390.019531 416.53125 388.667969 416.792969 C 387.316406 417.054688 385.957031 417.28125 384.59375 417.480469 C 383.230469 417.675781 381.859375 417.839844 380.488281 417.96875 C 379.117188 418.101562 377.742188 418.199219 376.367188 418.265625 C 374.992188 418.332031 373.613281 418.363281 372.234375 418.363281 C 370.859375 418.363281 369.480469 418.328125 368.105469 418.261719 C 366.726562 418.199219 365.355469 418.097656 363.984375 417.96875 C 362.609375 417.835938 361.242188 417.671875 359.878906 417.476562 C 358.515625 417.277344 357.15625 417.050781 355.804688 416.789062 C 354.453125 416.527344 353.105469 416.234375 351.765625 415.90625 C 350.429688 415.582031 349.097656 415.222656 347.777344 414.835938 C 346.453125 414.445312 345.140625 414.023438 343.839844 413.574219 C 342.539062 413.121094 341.25 412.640625 339.96875 412.125 C 338.691406 411.613281 337.425781 411.070312 336.171875 410.496094 C 334.917969 409.921875 333.679688 409.320312 332.457031 408.6875 C 331.234375 408.054688 330.023438 407.394531 328.832031 406.703125 C 327.640625 406.011719 326.464844 405.292969 325.304688 404.546875 C 324.148438 403.800781 323.007812 403.027344 321.886719 402.226562 C 320.765625 401.425781 319.664062 400.597656 318.582031 399.746094 C 317.5 398.894531 316.4375 398.015625 315.398438 397.109375 C 314.359375 396.207031 313.339844 395.277344 312.34375 394.324219 C 310.808594 392.851562 309.117188 391.570312 307.28125 390.492188 C 305.441406 389.414062 303.503906 388.558594 301.46875 387.933594 C 299.429688 387.308594 297.347656 386.929688 295.21875 386.792969 C 293.089844 386.65625 290.976562 386.765625 288.875 387.125 C 260.445312 392.042969 227.75 406.519531 227.75 424.429688 L 227.75 482.121094 C 227.75 500.753906 240.289062 516.703125 257.671875 520.433594 C 334.84375 536.972656 413.121094 536.382812 492.441406 520.019531 C 509.792969 516.441406 522.25 500.328125 522.25 481.734375 L 522.25 424.433594 C 522.25 406.535156 486.121094 392.078125 455.460938 387.148438 Z M 455.460938 387.148438 " fill-opacity="1" fill-rule="nonzero"/><path fill="#ffffff" d="M 463.074219 305.503906 C 463.074219 306.945312 463.039062 308.386719 462.96875 309.828125 C 462.898438 311.265625 462.792969 312.703125 462.648438 314.136719 C 462.507812 315.570312 462.332031 317.003906 462.121094 318.429688 C 461.910156 319.855469 461.664062 321.273438 461.382812 322.6875 C 461.101562 324.101562 460.785156 325.507812 460.433594 326.90625 C 460.085938 328.304688 459.699219 329.691406 459.28125 331.070312 C 458.863281 332.449219 458.410156 333.820312 457.925781 335.175781 C 457.441406 336.535156 456.921875 337.878906 456.371094 339.210938 C 455.816406 340.542969 455.234375 341.859375 454.617188 343.160156 C 454 344.464844 453.355469 345.75 452.675781 347.023438 C 451.996094 348.292969 451.285156 349.546875 450.542969 350.785156 C 449.800781 352.019531 449.03125 353.238281 448.230469 354.4375 C 447.429688 355.632812 446.601562 356.8125 445.742188 357.96875 C 444.882812 359.128906 443.996094 360.265625 443.082031 361.378906 C 442.167969 362.492188 441.226562 363.582031 440.257812 364.652344 C 439.289062 365.71875 438.296875 366.761719 437.277344 367.78125 C 436.257812 368.800781 435.214844 369.796875 434.148438 370.761719 C 433.078125 371.730469 431.988281 372.671875 430.875 373.585938 C 429.757812 374.5 428.625 375.386719 427.464844 376.246094 C 426.308594 377.105469 425.128906 377.933594 423.929688 378.734375 C 422.734375 379.535156 421.515625 380.308594 420.277344 381.046875 C 419.042969 381.789062 417.789062 382.5 416.519531 383.179688 C 415.246094 383.859375 413.960938 384.507812 412.65625 385.121094 C 411.351562 385.738281 410.035156 386.324219 408.703125 386.875 C 407.371094 387.425781 406.027344 387.945312 404.671875 388.429688 C 403.3125 388.917969 401.945312 389.367188 400.566406 389.785156 C 399.1875 390.203125 397.796875 390.589844 396.398438 390.941406 C 395.003906 391.289062 393.597656 391.605469 392.183594 391.886719 C 390.769531 392.167969 389.347656 392.414062 387.921875 392.625 C 386.496094 392.835938 385.066406 393.011719 383.632812 393.15625 C 382.199219 393.296875 380.761719 393.402344 379.320312 393.472656 C 377.882812 393.542969 376.441406 393.578125 375 393.578125 C 373.558594 393.578125 372.117188 393.542969 370.679688 393.472656 C 369.238281 393.402344 367.800781 393.296875 366.367188 393.15625 C 364.933594 393.011719 363.503906 392.835938 362.078125 392.625 C 360.652344 392.414062 359.230469 392.167969 357.816406 391.886719 C 356.402344 391.605469 354.996094 391.289062 353.601562 390.941406 C 352.203125 390.589844 350.8125 390.203125 349.433594 389.785156 C 348.054688 389.367188 346.6875 388.917969 345.328125 388.429688 C 343.972656 387.945312 342.628906 387.425781 341.296875 386.875 C 339.964844 386.324219 338.644531 385.738281 337.34375 385.121094 C 336.039062 384.507812 334.753906 383.859375 333.480469 383.179688 C 332.210938 382.5 330.957031 381.789062 329.722656 381.046875 C 328.484375 380.308594 327.265625 379.535156 326.070312 378.734375 C 324.871094 377.933594 323.691406 377.105469 322.535156 376.246094 C 321.375 375.386719 320.242188 374.5 319.125 373.585938 C 318.011719 372.671875 316.921875 371.730469 315.851562 370.761719 C 314.785156 369.796875 313.742188 368.800781 312.722656 367.78125 C 311.703125 366.761719 310.710938 365.71875 309.742188 364.652344 C 308.773438 363.582031 307.832031 362.492188 306.917969 361.378906 C 306.003906 360.265625 305.117188 359.128906 304.257812 357.96875 C 303.398438 356.8125 302.570312 355.632812 301.769531 354.4375 C 300.96875 353.238281 300.199219 352.019531 299.457031 350.785156 C 298.714844 349.546875 298.003906 348.292969 297.324219 347.023438 C 296.644531 345.75 296 344.464844 295.382812 343.160156 C 294.765625 341.859375 294.183594 340.542969 293.628906 339.210938 C 293.078125 337.878906 292.558594 336.535156 292.074219 335.175781 C 291.589844 333.820312 291.136719 332.449219 290.71875 331.070312 C 290.300781 329.691406 289.914062 328.304688 289.566406 326.90625 C 289.214844 325.507812 288.898438 324.101562 288.617188 322.6875 C 288.335938 321.273438 288.089844 319.855469 287.878906 318.429688 C 287.667969 317.003906 287.492188 315.570312 287.351562 314.136719 C 287.207031 312.703125 287.101562 311.265625 287.03125 309.828125 C 286.960938 308.386719 286.925781 306.945312 286.925781 305.503906 C 286.925781 304.0625 286.960938 302.625 287.03125 301.183594 C 287.101562 299.742188 287.207031 298.308594 287.351562 296.871094 C 287.492188 295.4375 287.667969 294.007812 287.878906 292.582031 C 288.089844 291.15625 288.335938 289.734375 288.617188 288.324219 C 288.898438 286.910156 289.214844 285.503906 289.566406 284.105469 C 289.914062 282.707031 290.300781 281.316406 290.71875 279.9375 C 291.136719 278.558594 291.589844 277.191406 292.074219 275.832031 C 292.558594 274.476562 293.078125 273.132812 293.628906 271.800781 C 294.183594 270.46875 294.765625 269.152344 295.382812 267.847656 C 296 266.546875 296.644531 265.257812 297.324219 263.988281 C 298.003906 262.714844 298.714844 261.460938 299.457031 260.226562 C 300.199219 258.988281 300.96875 257.773438 301.769531 256.574219 C 302.570312 255.375 303.398438 254.195312 304.257812 253.039062 C 305.117188 251.882812 306.003906 250.746094 306.917969 249.632812 C 307.832031 248.515625 308.773438 247.425781 309.742188 246.359375 C 310.710938 245.289062 311.703125 244.246094 312.722656 243.226562 C 313.742188 242.207031 314.785156 241.214844 315.851562 240.246094 C 316.921875 239.277344 318.011719 238.335938 319.125 237.421875 C 320.242188 236.507812 321.375 235.621094 322.535156 234.761719 C 323.691406 233.90625 324.871094 233.074219 326.070312 232.273438 C 327.265625 231.472656 328.484375 230.703125 329.722656 229.960938 C 330.957031 229.21875 332.210938 228.511719 333.480469 227.832031 C 334.753906 227.152344 336.039062 226.503906 337.34375 225.886719 C 338.644531 225.269531 339.964844 224.6875 341.296875 224.136719 C 342.628906 223.582031 343.972656 223.066406 345.328125 222.578125 C 346.6875 222.09375 348.054688 221.640625 349.433594 221.222656 C 350.8125 220.804688 352.203125 220.421875 353.601562 220.070312 C 354.996094 219.71875 356.402344 219.40625 357.816406 219.125 C 359.230469 218.84375 360.652344 218.597656 362.078125 218.382812 C 363.503906 218.171875 364.933594 217.996094 366.367188 217.855469 C 367.800781 217.714844 369.238281 217.609375 370.679688 217.535156 C 372.117188 217.464844 373.558594 217.429688 375 217.429688 C 376.441406 217.429688 377.882812 217.464844 379.320312 217.535156 C 380.761719 217.609375 382.199219 217.714844 383.632812 217.855469 C 385.066406 217.996094 386.496094 218.171875 387.921875 218.382812 C 389.347656 218.597656 390.769531 218.84375 392.183594 219.125 C 393.597656 219.40625 395.003906 219.71875 396.398438 220.070312 C 397.796875 220.421875 399.1875 220.804688 400.566406 221.222656 C 401.945312 221.640625 403.3125 222.09375 404.671875 222.578125 C 406.027344 223.066406 407.371094 223.582031 408.703125 224.136719 C 410.035156 224.6875 411.351562 225.269531 412.65625 225.886719 C 413.960938 226.503906 415.246094 227.152344 416.519531 227.832031 C 417.789062 228.511719 419.042969 229.21875 420.277344 229.960938 C 421.515625 230.703125 422.734375 231.472656 423.929688 232.273438 C 425.128906 233.074219 426.308594 233.90625 427.464844 234.761719 C 428.625 235.621094 429.757812 236.507812 430.875 237.421875 C 431.988281 238.335938 433.078125 239.277344 434.148438 240.246094 C 435.214844 241.214844 436.257812 242.207031 437.277344 243.226562 C 438.296875 244.246094 439.289062 245.289062 440.257812 246.359375 C 441.226562 247.425781 442.167969 248.515625 443.082031 249.632812 C 443.996094 250.746094 444.882812 251.882812 445.742188 253.039062 C 446.601562 254.195312 447.429688 255.375 448.230469 256.574219 C 449.03125 257.773438 449.800781 258.988281 450.542969 260.226562 C 451.285156 261.460938 451.996094 262.714844 452.675781 263.988281 C 453.355469 265.257812 454 266.546875 454.617188 267.847656 C 455.234375 269.152344 455.816406 270.46875 456.371094 271.800781 C 456.921875 273.132812 457.441406 274.476562 457.925781 275.832031 C 458.410156 277.191406 458.863281 278.558594 459.28125 279.9375 C 459.699219 281.316406 460.085938 282.707031 460.433594 284.105469 C 460.785156 285.503906 461.101562 286.910156 461.382812 288.324219 C 461.664062 289.734375 461.910156 291.15625 462.121094 292.582031 C 462.332031 294.007812 462.507812 295.4375 462.648438 296.871094 C 462.792969 298.308594 462.898438 299.742188 462.96875 301.183594 C 463.039062 302.625 463.074219 304.0625 463.074219 305.503906 Z M 463.074219 305.503906 " fill-opacity="1" fill-rule="nonzero"/><path fill="#ffffff" d="M 375 651 C 337.726562 651 301.585938 643.707031 267.574219 629.320312 C 259.402344 625.855469 251.410156 622.003906 243.605469 617.769531 C 235.800781 613.535156 228.21875 608.933594 220.855469 603.96875 C 213.492188 599.003906 206.386719 593.699219 199.535156 588.050781 C 192.683594 582.402344 186.117188 576.441406 179.839844 570.160156 C 173.558594 563.882812 167.597656 557.316406 161.949219 550.464844 C 156.300781 543.613281 150.996094 536.507812 146.03125 529.144531 C 141.066406 521.78125 136.464844 514.199219 132.230469 506.394531 C 127.996094 498.589844 124.144531 490.597656 120.679688 482.425781 C 106.292969 448.414062 99 412.273438 99 375 C 99 337.726562 106.292969 301.585938 120.679688 267.574219 C 124.144531 259.402344 127.996094 251.410156 132.230469 243.605469 C 136.464844 235.800781 141.066406 228.21875 146.03125 220.855469 C 150.996094 213.492188 156.300781 206.386719 161.949219 199.535156 C 167.597656 192.683594 173.558594 186.117188 179.839844 179.839844 C 186.117188 173.558594 192.683594 167.597656 199.535156 161.949219 C 206.386719 156.300781 213.492188 150.996094 220.855469 146.03125 C 228.21875 141.066406 235.800781 136.464844 243.605469 132.230469 C 251.410156 127.996094 259.402344 124.144531 267.574219 120.679688 C 301.585938 106.292969 337.726562 99 375 99 C 412.273438 99 448.414062 106.292969 482.425781 120.679688 C 490.597656 124.144531 498.589844 127.996094 506.394531 132.230469 C 514.199219 136.464844 521.78125 141.066406 529.144531 146.03125 C 536.507812 150.996094 543.613281 156.300781 550.464844 161.949219 C 557.316406 167.597656 563.882812 173.558594 570.160156 179.839844 C 576.441406 186.117188 582.402344 192.683594 588.050781 199.535156 C 593.699219 206.386719 599.003906 213.492188 603.96875 220.855469 C 608.933594 228.21875 613.535156 235.800781 617.769531 243.605469 C 622.003906 251.410156 625.855469 259.402344 629.320312 267.574219 C 643.722656 301.585938 651 337.726562 651 375 C 651.015625 396.863281 648.476562 418.429688 643.386719 439.691406 C 641.644531 446.941406 639.574219 454.210938 637.242188 461.292969 C 635.992188 465.09375 634.628906 468.941406 633.195312 472.726562 C 629.953125 481.253906 626.300781 489.601562 622.234375 497.769531 C 618.167969 505.933594 613.710938 513.878906 608.859375 521.605469 C 604.007812 529.332031 598.785156 536.800781 593.199219 544.011719 C 587.609375 551.21875 581.679688 558.136719 575.40625 564.761719 C 569.132812 571.386719 562.550781 577.683594 555.65625 583.65625 C 548.761719 589.628906 541.585938 595.25 534.136719 600.515625 C 526.6875 605.777344 518.996094 610.664062 511.0625 615.167969 C 503.128906 619.671875 494.996094 623.777344 486.65625 627.476562 C 483.214844 629.003906 479.664062 630.476562 476.113281 631.890625 C 461.113281 637.800781 445.714844 642.355469 429.914062 645.546875 C 414.109375 648.742188 398.152344 650.527344 382.035156 650.902344 C 379.800781 650.96875 377.421875 651 375 651 Z M 375 111 C 339.34375 111 304.773438 117.976562 272.25 131.730469 C 264.429688 135.046875 256.789062 138.730469 249.320312 142.78125 C 241.855469 146.832031 234.601562 151.234375 227.558594 155.980469 C 220.515625 160.730469 213.71875 165.804688 207.164062 171.210938 C 200.609375 176.613281 194.328125 182.316406 188.320312 188.320312 C 182.316406 194.328125 176.613281 200.609375 171.207031 207.164062 C 165.804688 213.71875 160.730469 220.515625 155.980469 227.558594 C 151.234375 234.601562 146.832031 241.855469 142.78125 249.320312 C 138.730469 256.789062 135.046875 264.429688 131.730469 272.25 C 117.976562 304.773438 111 339.34375 111 375 C 111 410.65625 117.976562 445.226562 131.730469 477.75 C 135.046875 485.570312 138.730469 493.210938 142.78125 500.679688 C 146.832031 508.144531 151.234375 515.398438 155.980469 522.441406 C 160.730469 529.484375 165.804688 536.28125 171.207031 542.835938 C 176.613281 549.390625 182.316406 555.671875 188.320312 561.679688 C 194.328125 567.683594 200.609375 573.386719 207.164062 578.789062 C 213.71875 584.195312 220.515625 589.269531 227.558594 594.019531 C 234.601562 598.765625 241.855469 603.167969 249.320312 607.21875 C 256.789062 611.269531 264.429688 614.953125 272.25 618.269531 C 304.773438 632.023438 339.34375 639 375 639 C 377.320312 639 379.582031 638.96875 381.730469 638.914062 C 397.144531 638.558594 412.410156 636.851562 427.523438 633.796875 C 442.636719 630.742188 457.363281 626.390625 471.707031 620.734375 C 475.109375 619.394531 478.503906 617.972656 481.792969 616.515625 C 489.769531 612.972656 497.550781 609.050781 505.140625 604.742188 C 512.730469 600.429688 520.085938 595.757812 527.210938 590.722656 C 534.339844 585.6875 541.199219 580.308594 547.796875 574.597656 C 554.390625 568.882812 560.691406 562.855469 566.691406 556.519531 C 572.691406 550.183594 578.363281 543.566406 583.710938 536.671875 C 589.058594 529.773438 594.050781 522.632812 598.691406 515.242188 C 603.332031 507.851562 607.597656 500.25 611.488281 492.4375 C 615.378906 484.628906 618.875 476.644531 621.976562 468.484375 C 623.347656 464.863281 624.648438 461.183594 625.84375 457.550781 C 628.074219 450.769531 630.042969 443.820312 631.714844 436.890625 C 636.585938 416.546875 639.015625 395.917969 639 375 C 639 339.34375 632.023438 304.773438 618.269531 272.25 C 614.953125 264.429688 611.269531 256.789062 607.21875 249.320312 C 603.167969 241.855469 598.765625 234.601562 594.019531 227.558594 C 589.269531 220.515625 584.195312 213.71875 578.789062 207.164062 C 573.386719 200.609375 567.683594 194.328125 561.679688 188.320312 C 555.671875 182.316406 549.390625 176.613281 542.835938 171.210938 C 536.28125 165.804688 529.484375 160.730469 522.441406 155.980469 C 515.398438 151.234375 508.144531 146.832031 500.679688 142.78125 C 493.210938 138.730469 485.570312 135.046875 477.75 131.730469 C 445.226562 117.976562 410.65625 111 375 111 Z M 375 111 " fill-opacity="1" fill-rule="nonzero"/></svg>