<svg xmlns="http://www.w3.org/2000/svg" xmlns:xlink="http://www.w3.org/1999/xlink" width="1000" zoomAndPan="magnify" viewBox="0 0 750 749.999995" height="1000" preserveAspectRatio="xMidYMid meet" version="1.0"><defs><clipPath id="a7ba2b7415"><path d="M 75 109.5 L 675 109.5 L 675 640.5 L 75 640.5 Z M 75 109.5 " clip-rule="nonzero"/></clipPath><clipPath id="da1ea688ee"><path d="M 75 184.5 L 75 565.5 C 75 606.921875 108.578125 640.5 150 640.5 L 600 640.5 C 641.421875 640.5 675 606.921875 675 565.5 L 675 184.5 C 675 143.078125 641.421875 109.5 600 109.5 L 150 109.5 C 108.578125 109.5 75 143.078125 75 184.5 Z M 75 184.5 " clip-rule="nonzero"/></clipPath></defs><g clip-path="url(#a7ba2b7415)"><g clip-path="url(#da1ea688ee)"><path fill="#e7bd1e" d="M 127.5625 109.5 C 98.71875 109.5 75.121094 133.097656 75.121094 161.941406 L 75.121094 424.148438 C 75.121094 448.535156 91.902344 468.976562 114.449219 474.746094 L 114.449219 240.601562 C 114.449219 189.996094 155.617188 148.832031 206.222656 148.832031 L 545.246094 148.832031 C 539.480469 126.28125 519.035156 109.5 494.648438 109.5 Z M 206.222656 188.160156 C 183.148438 188.160156 163.210938 203.390625 156.394531 224.367188 L 389.765625 371.707031 L 623.140625 224.367188 C 616.324219 203.390625 596.386719 188.160156 573.3125 188.160156 Z M 153.78125 269.179688 L 153.78125 502.808594 C 153.78125 531.652344 177.378906 555.25 206.222656 555.25 L 380.089844 555.25 C 377.992188 549.21875 376.65625 542.402344 376.65625 535.585938 C 376.65625 503.070312 403.140625 476.589844 435.652344 476.589844 L 517.183594 476.589844 C 513.25 468.460938 510.882812 459.546875 510.882812 450.367188 C 510.882812 434.636719 517.179688 419.695312 528.195312 408.683594 C 539.46875 397.40625 554.195312 391.371094 570.1875 391.371094 C 585.921875 391.371094 600.601562 397.40625 611.875 408.683594 L 625.753906 422.558594 L 625.753906 269.179688 L 400.265625 411.550781 C 397.121094 413.648438 393.4375 414.726562 389.765625 414.726562 C 386.097656 414.726562 382.414062 413.648438 379.269531 411.550781 Z M 569.726562 430.703125 C 568.953125 430.714844 568.179688 430.773438 567.410156 430.875 C 566.644531 430.976562 565.882812 431.125 565.132812 431.320312 C 564.382812 431.511719 563.644531 431.746094 562.921875 432.027344 C 562.199219 432.308594 561.496094 432.628906 560.808594 432.992188 C 560.125 433.355469 559.464844 433.757812 558.824219 434.199219 C 558.1875 434.640625 557.578125 435.117188 557 435.632812 C 556.417969 436.144531 555.867188 436.691406 555.351562 437.269531 C 554.835938 437.847656 554.355469 438.453125 553.910156 439.089844 C 553.464844 439.726562 553.0625 440.382812 552.695312 441.066406 C 552.328125 441.75 552.003906 442.453125 551.71875 443.175781 C 551.433594 443.894531 551.195312 444.632812 551 445.382812 C 550.800781 446.132812 550.648438 446.890625 550.542969 447.660156 C 550.4375 448.425781 550.375 449.199219 550.359375 449.972656 C 550.34375 450.75 550.375 451.523438 550.449219 452.292969 C 550.527344 453.066406 550.648438 453.828125 550.8125 454.585938 C 550.980469 455.34375 551.191406 456.089844 551.445312 456.820312 L 571.929688 515.921875 L 435.652344 515.921875 C 435.003906 515.90625 434.355469 515.921875 433.707031 515.972656 C 433.054688 516.042969 432.40625 516.144531 431.761719 516.277344 C 430.460938 516.511719 429.199219 516.867188 427.972656 517.355469 C 427.359375 517.597656 426.761719 517.871094 426.179688 518.171875 C 425.011719 518.796875 423.921875 519.53125 422.902344 520.375 C 422.402344 520.796875 421.921875 521.238281 421.46875 521.707031 C 420.53125 522.628906 419.695312 523.636719 418.957031 524.730469 C 418.605469 525.277344 418.28125 525.839844 417.984375 526.417969 C 417.367188 527.582031 416.875 528.792969 416.5 530.054688 C 416.316406 530.679688 416.160156 531.3125 416.039062 531.949219 C 415.921875 532.59375 415.835938 533.242188 415.785156 533.894531 C 415.730469 534.5625 415.714844 535.226562 415.730469 535.894531 C 415.734375 536.542969 415.769531 537.191406 415.835938 537.839844 C 415.980469 539.148438 416.253906 540.425781 416.652344 541.679688 C 417.0625 542.929688 417.59375 544.121094 418.242188 545.265625 C 418.902344 546.417969 419.667969 547.492188 420.546875 548.492188 C 421.839844 549.976562 423.328125 551.242188 425 552.28125 C 426.121094 552.980469 427.296875 553.558594 428.535156 554.023438 C 429.765625 554.472656 431.027344 554.796875 432.324219 554.996094 C 432.96875 555.097656 433.617188 555.164062 434.269531 555.199219 C 434.730469 555.234375 435.191406 555.25 435.652344 555.25 L 571.929688 555.25 L 551.445312 614.351562 C 551.074219 615.394531 550.796875 616.464844 550.609375 617.558594 C 550.421875 618.652344 550.328125 619.75 550.324219 620.859375 C 550.324219 621.96875 550.414062 623.070312 550.597656 624.164062 C 550.785156 625.257812 551.058594 626.328125 551.425781 627.375 C 551.789062 628.421875 552.242188 629.429688 552.777344 630.402344 C 553.3125 631.371094 553.925781 632.289062 554.617188 633.15625 C 555.308594 634.023438 556.070312 634.828125 556.898438 635.566406 C 557.722656 636.304688 558.609375 636.964844 559.546875 637.554688 C 560.488281 638.144531 561.46875 638.648438 562.496094 639.074219 C 563.519531 639.496094 564.574219 639.828125 565.65625 640.074219 C 566.738281 640.320312 567.832031 640.46875 568.9375 640.53125 C 570.046875 640.589844 571.148438 640.554688 572.25 640.429688 C 573.351562 640.300781 574.4375 640.082031 575.5 639.769531 C 576.566406 639.460938 577.59375 639.0625 578.59375 638.578125 C 579.589844 638.09375 580.539062 637.527344 581.441406 636.882812 C 582.34375 636.238281 583.183594 635.519531 583.964844 634.734375 L 669.179688 549.515625 C 669.636719 549.058594 670.074219 548.582031 670.484375 548.085938 C 670.894531 547.585938 671.277344 547.070312 671.636719 546.53125 C 671.996094 545.996094 672.328125 545.445312 672.632812 544.875 C 672.9375 544.304688 673.214844 543.722656 673.460938 543.128906 C 673.707031 542.53125 673.925781 541.925781 674.113281 541.304688 C 674.300781 540.6875 674.460938 540.0625 674.585938 539.429688 C 674.710938 538.796875 674.804688 538.160156 674.871094 537.519531 C 674.933594 536.875 674.964844 536.230469 674.964844 535.585938 C 674.964844 534.941406 674.933594 534.296875 674.871094 533.652344 C 674.804688 533.011719 674.710938 532.375 674.585938 531.742188 C 674.457031 531.109375 674.300781 530.484375 674.113281 529.863281 C 673.925781 529.246094 673.707031 528.640625 673.460938 528.042969 C 673.214844 527.449219 672.9375 526.867188 672.632812 526.296875 C 672.328125 525.726562 671.996094 525.175781 671.636719 524.640625 C 671.277344 524.101562 670.894531 523.585938 670.484375 523.085938 C 670.074219 522.589844 669.636719 522.113281 669.179688 521.65625 L 583.964844 436.4375 C 583.03125 435.507812 582.011719 434.679688 580.914062 433.953125 C 579.8125 433.226562 578.652344 432.617188 577.429688 432.125 C 576.207031 431.632812 574.945312 431.265625 573.648438 431.027344 C 572.351562 430.789062 571.046875 430.679688 569.726562 430.703125 Z M 569.726562 430.703125 " fill-opacity="1" fill-rule="nonzero"/></g></g></svg>