<svg xmlns="http://www.w3.org/2000/svg" xmlns:xlink="http://www.w3.org/1999/xlink" width="1000" zoomAndPan="magnify" viewBox="0 0 750 749.999995" height="1000" preserveAspectRatio="xMidYMid meet" version="1.0"><defs><clipPath id="55903fc98b"><path d="M 80 91 L 672 91 L 672 657 L 80 657 Z M 80 91 " clip-rule="nonzero"/></clipPath><clipPath id="79dd14a86a"><path d="M -21.035156 255.078125 L 474.46875 -26.660156 L 771.035156 494.921875 L 275.53125 776.660156 Z M -21.035156 255.078125 " clip-rule="nonzero"/></clipPath><clipPath id="4580730a7c"><path d="M -21.035156 255.078125 L 474.46875 -26.660156 L 771.035156 494.921875 L 275.53125 776.660156 Z M -21.035156 255.078125 " clip-rule="nonzero"/></clipPath></defs><g clip-path="url(#55903fc98b)"><g clip-path="url(#79dd14a86a)"><g clip-path="url(#4580730a7c)"><path fill="#545454" d="M 191.542969 139.570312 C 179.246094 146.5625 173.675781 161.234375 178.175781 174.644531 L 194.632812 223.546875 C 178.09375 243.496094 164.9375 265.707031 155.8125 289.480469 L 105.324219 298.945312 C 91.417969 301.550781 81.355469 313.636719 81.238281 327.769531 L 80.675781 416.871094 C 80.597656 431.015625 90.519531 443.273438 104.371094 446.066406 L 154.957031 456.253906 C 159.347656 468.074219 164.460938 479.738281 170.894531 491.054688 C 177.328125 502.367188 184.738281 512.726562 192.648438 522.542969 L 175.535156 571.222656 C 170.851562 584.554688 176.308594 599.351562 188.503906 606.515625 L 265.363281 651.597656 C 277.558594 658.765625 293.113281 656.28125 302.480469 645.691406 L 336.433594 607.140625 C 361.519531 611.453125 387.324219 611.460938 412.917969 607.449219 L 446.523438 646.601562 C 455.746094 657.324219 471.203125 660.039062 483.5 653.046875 L 561.023438 608.96875 C 573.320312 601.976562 578.890625 587.304688 574.390625 573.894531 L 557.933594 524.992188 C 574.476562 505.042969 587.628906 482.832031 596.753906 459.0625 L 647.242188 449.597656 C 661.148438 446.988281 671.226562 434.929688 671.328125 420.769531 L 671.863281 331.617188 C 671.941406 317.472656 662.046875 305.265625 648.195312 302.476562 L 597.609375 292.285156 C 593.222656 280.46875 588.105469 268.800781 581.671875 257.488281 C 575.238281 246.171875 567.832031 235.8125 559.917969 225.996094 L 577.03125 177.316406 C 581.714844 163.984375 576.257812 149.1875 564.0625 142.023438 L 487.203125 96.941406 C 475.007812 89.773438 459.453125 92.257812 450.085938 102.851562 L 416.132812 141.398438 C 391.050781 137.085938 365.242188 137.078125 339.648438 141.089844 L 306.042969 101.941406 C 296.820312 91.214844 281.363281 88.5 269.066406 95.492188 Z M 317.890625 271.574219 C 374.605469 239.328125 446.730469 259.164062 478.980469 315.878906 C 511.226562 372.59375 491.386719 444.71875 434.675781 476.964844 C 377.960938 509.210938 305.835938 489.375 273.589844 432.660156 C 241.34375 375.949219 261.179688 303.820312 317.890625 271.574219 Z M 317.890625 271.574219 " fill-opacity="1" fill-rule="nonzero"/></g></g></g></svg>