<svg xmlns="http://www.w3.org/2000/svg" xmlns:xlink="http://www.w3.org/1999/xlink" width="1000" zoomAndPan="magnify" viewBox="0 0 750 749.999995" height="1000" preserveAspectRatio="xMidYMid meet" version="1.0"><defs><clipPath id="8dc799a3c9"><path d="M 75 143 L 613 143 L 613 669.75 L 75 669.75 Z M 75 143 " clip-rule="nonzero"/></clipPath><clipPath id="b9bcda9236"><path d="M 326 80.25 L 675 80.25 L 675 429 L 326 429 Z M 326 80.25 " clip-rule="nonzero"/></clipPath></defs><g clip-path="url(#8dc799a3c9)"><path fill="#34c759" d="M 607.144531 551.761719 L 596.773438 526.039062 C 589.46875 507.914062 575.03125 493.59375 556.851562 486.433594 L 507.199219 466.882812 C 480.851562 456.507812 450.921875 462.800781 430.835938 482.761719 C 411.449219 502.019531 384.46875 519.117188 358.203125 503.359375 C 320.519531 480.75 255.5 417.488281 240.785156 381.398438 C 230.085938 355.148438 249.160156 326.007812 267.160156 306.09375 C 282.160156 289.496094 286.085938 265.660156 277.496094 245.003906 L 255.242188 191.488281 C 249.339844 177.289062 238.015625 166.027344 223.78125 160.203125 L 192.554688 147.421875 C 167.742188 137.269531 139.179688 145.492188 123.640625 167.339844 C 86.699219 219.28125 37.660156 318.179688 119.695312 401.828125 C 180.285156 463.601562 259.871094 553.199219 342.816406 624.945312 C 421.734375 693.207031 513.300781 670.105469 571.371094 642.792969 C 605.546875 626.71875 621.269531 586.792969 607.144531 551.761719 Z M 607.144531 551.761719 " fill-opacity="1" fill-rule="nonzero"/></g><path fill="#34c759" d="M 512.023438 355.511719 C 492.453125 293.644531 455.671875 265.476562 428.261719 252.738281 C 416.898438 247.457031 406.222656 244.332031 397.21875 242.492188 C 383.734375 239.738281 371.308594 250.535156 372.066406 264.277344 C 372.59375 273.789062 379.433594 281.808594 388.769531 283.707031 C 395.398438 285.054688 403.585938 287.449219 412.257812 291.683594 C 440.101562 305.28125 460.183594 331.023438 471.941406 368.191406 C 475.441406 379.261719 487.253906 385.394531 498.324219 381.894531 C 502.269531 380.644531 505.589844 378.339844 508.070312 375.386719 C 512.542969 370.0625 514.277344 362.632812 512.023438 355.511719 Z M 512.023438 355.511719 " fill-opacity="1" fill-rule="nonzero"/><path fill="#34c759" d="M 596.230469 367.980469 C 584.308594 319.953125 564.667969 278.910156 537.855469 245.992188 C 516.117188 219.308594 489.726562 197.972656 459.421875 182.574219 C 430.359375 167.8125 403.285156 161.410156 384.816406 158.636719 C 372.027344 156.714844 360.558594 166.6875 360.671875 179.621094 C 360.765625 189.945312 368.328125 198.691406 378.539062 200.226562 C 393.75 202.511719 417.125 207.957031 442.0625 220.921875 C 466.765625 233.765625 488.296875 251.464844 506.054688 273.527344 C 528.519531 301.441406 545.128906 336.625 555.421875 378.105469 C 558.21875 389.375 569.621094 396.242188 580.890625 393.445312 C 585.113281 392.394531 588.722656 390.136719 591.433594 387.128906 C 595.949219 382.117188 597.976562 375.019531 596.230469 367.980469 Z M 596.230469 367.980469 " fill-opacity="1" fill-rule="nonzero"/><g clip-path="url(#b9bcda9236)"><path fill="#34c759" d="M 674.886719 405.171875 C 667.617188 331.214844 645.960938 268.011719 610.527344 217.3125 C 581.898438 176.351562 544.40625 143.605469 499.097656 119.992188 C 422.511719 80.078125 350.390625 80.226562 347.355469 80.25 C 335.746094 80.351562 326.394531 89.839844 326.492188 101.453125 C 326.59375 113.0625 336.0625 122.390625 347.671875 122.292969 C 348.324219 122.289062 413.714844 122.414062 481.144531 158.050781 C 520.050781 178.613281 552.191406 206.949219 576.675781 242.269531 C 607.566406 286.835938 626.53125 343.03125 633.046875 409.285156 C 634.183594 420.839844 644.46875 429.285156 656.023438 428.148438 C 660.949219 427.664062 665.304688 425.519531 668.601562 422.324219 C 673.035156 418.015625 675.539062 411.804688 674.886719 405.171875 Z M 674.886719 405.171875 " fill-opacity="1" fill-rule="nonzero"/></g></svg>